<?xml version="1.0" ?><!DOCTYPE svg  PUBLIC '-//W3C//DTD SVG 1.1//EN'  'http://www.w3.org/Graphics/SVG/1.1/DTD/svg11.dtd'><svg enable-background="new 0 0 32 32"  id="Слой_1" version="1.1" viewBox="0 0 32 32"  xml:space="preserve" xmlns="http://www.w3.org/2000/svg" xmlns:xlink="http://www.w3.org/1999/xlink"><path clip-rule="evenodd" d="M16.765,31.705l14.944-14.944  c0.202-0.202,0.301-0.467,0.299-0.731c0-0.008,0.004-0.014,0.004-0.022v-15c0-0.552-0.448-1-1-1c-0.008,0-0.014,0.004-0.022,0.004  c-0.264-0.002-0.529,0.097-0.731,0.299L16.013,14.558L1.736,0.281c-0.401-0.401-1.051-0.401-1.452,0  c-0.238,0.238-0.317,0.561-0.273,0.87l0,14.711c-0.044,0.309,0.035,0.632,0.273,0.87l14.972,14.972  c0.208,0.208,0.482,0.303,0.755,0.295C16.283,32.007,16.557,31.913,16.765,31.705z M2.012,15.556V3.46l13.244,13.244  c0.208,0.208,0.482,0.303,0.755,0.295c0.272,0.008,0.546-0.087,0.754-0.295L30.012,3.458v12.101L16.013,29.558L2.012,15.556z" fill="#121313" fill-rule="evenodd" id="Border_Arrow_Down"/><g/><g/><g/><g/><g/><g/></svg>